<?xml version="1.0" encoding="utf-8"?>
<!-- Generator: Adobe Illustrator 15.1.0, SVG Export Plug-In . SVG Version: 6.00 Build 0)  -->
<!DOCTYPE svg PUBLIC "-//W3C//DTD SVG 1.1//EN" "http://www.w3.org/Graphics/SVG/1.1/DTD/svg11.dtd">
<svg version="1.1" id="Layer_1" xmlns="http://www.w3.org/2000/svg" xmlns:xlink="http://www.w3.org/1999/xlink" x="0px" y="0px"
	 width="600px" height="600px" viewBox="0 0 600 600" enable-background="new 0 0 600 600" xml:space="preserve">
<g>
	<path fill="#FCFCFC" d="M303.52,543.391c-136.391,0-247.35-110.966-247.35-247.356c0-136.392,110.959-247.353,247.35-247.353
		s247.342,110.961,247.342,247.353C550.861,432.425,439.91,543.391,303.52,543.391z M303.52,65.618
		c-127.056,0-230.426,103.356-230.426,230.417c0,127.06,103.371,230.419,230.426,230.419c127.06,0,230.429-103.359,230.429-230.419
		C533.948,168.974,430.579,65.618,303.52,65.618z"/>
	<path fill="#FCFCFC" d="M209.784,85.623c0,9.892-8.027,17.905-17.92,17.905c-9.888,0-17.915-8.013-17.915-17.905
		c0-9.902,8.027-17.927,17.915-17.927C201.757,67.695,209.784,75.72,209.784,85.623z"/>
	<path fill="#FCFCFC" d="M448.67,85.623c0,9.892-8.027,17.905-17.92,17.905c-9.888,0-17.915-8.013-17.915-17.905
		c0-9.902,8.027-17.927,17.915-17.927C440.643,67.695,448.67,75.72,448.67,85.623z"/>
	<path fill="#FCFCFC" d="M556.17,252.841c0,9.893-8.027,17.905-17.92,17.905s-17.915-8.013-17.915-17.905
		c0-9.902,8.022-17.925,17.915-17.925S556.17,242.938,556.17,252.841z"/>
	<path fill="#FCFCFC" d="M484.5,467.84c0,9.893-8.022,17.905-17.915,17.905s-17.915-8.013-17.915-17.905
		c0-9.902,8.022-17.93,17.915-17.93S484.5,457.938,484.5,467.84z"/>
	<path fill="#FCFCFC" d="M400.892,515.618c0,9.893-8.027,17.905-17.915,17.905c-9.893,0-17.92-8.013-17.92-17.905
		c0-9.902,8.027-17.93,17.92-17.93C392.864,497.688,400.892,505.716,400.892,515.618z"/>
	<path fill="#FCFCFC" d="M197.836,503.675c0,9.888-8.022,17.9-17.915,17.9c-9.892,0-17.915-8.013-17.915-17.9
		c0-9.907,8.023-17.93,17.915-17.93C189.813,485.745,197.836,493.768,197.836,503.675z"/>
	<path fill="#FCFCFC" d="M126.174,432.005c0,9.893-8.024,17.905-17.917,17.905s-17.917-8.013-17.917-17.905
		c0-9.902,8.025-17.925,17.917-17.925S126.174,422.103,126.174,432.005z"/>
	<path fill="#FCFCFC" d="M126.174,169.232c0,9.893-8.024,17.905-17.917,17.905s-17.917-8.013-17.917-17.905
		c0-9.902,8.025-17.927,17.917-17.927S126.174,159.33,126.174,169.232z"/>
	<polygon fill="#FCFCFC" points="524.476,258.734 196.527,98.488 200.248,90.884 528.206,251.127 	"/>
	<polygon fill="#FCFCFC" points="453.904,464.339 112.077,181.562 117.478,175.028 459.319,457.811 	"/>
	<polygon fill="#FCFCFC" points="395.843,507.371 388.606,503.172 524.544,261.464 531.775,265.663 	"/>
	<polygon fill="#FCFCFC" points="180.155,506.976 175.268,500.066 539.056,242.382 543.934,249.286 	"/>
	<polygon fill="#FCFCFC" points="467.444,467.901 460.801,468.357 426.096,95.183 432.739,94.742 	"/>
	<polygon fill="#FCFCFC" points="112.831,171.521 110.917,163.428 421.184,86.222 423.081,94.315 	"/>
	<polygon fill="#FCFCFC" points="114.777,435.179 106.564,433.128 193.559,85.798 201.771,87.852 	"/>
	<polygon fill="#FCFCFC" points="172.539,505.408 103.608,169.223 111.919,167.636 180.849,503.826 	"/>
	<polygon fill="#FCFCFC" points="374.392,517.533 103.318,436.081 105.772,427.98 376.848,509.433 	"/>
</g>
</svg>
